<?xml version="1.0" encoding="UTF-8" standalone="no"?>
<!-- Created with Inkscape (http://www.inkscape.org/) -->

<svg
   xmlns:dc="http://purl.org/dc/elements/1.1/"
   xmlns:cc="http://creativecommons.org/ns#"
   xmlns:rdf="http://www.w3.org/1999/02/22-rdf-syntax-ns#"
   xmlns:svg="http://www.w3.org/2000/svg"
   xmlns="http://www.w3.org/2000/svg"
   xmlns:sodipodi="http://sodipodi.sourceforge.net/DTD/sodipodi-0.dtd"
   xmlns:inkscape="http://www.inkscape.org/namespaces/inkscape"
   width="744.09448819"
   height="1052.3622047"
   id="svg2"
   version="1.1"
   inkscape:version="0.48.4 r9939"
   sodipodi:docname="New document 1">
  <defs
     id="defs4" />
  <sodipodi:namedview
     id="base"
     pagecolor="#ffffff"
     bordercolor="#666666"
     borderopacity="1.0"
     inkscape:pageopacity="0.0"
     inkscape:pageshadow="2"
     inkscape:zoom="2.8"
     inkscape:cx="490.91042"
     inkscape:cy="304.70957"
     inkscape:document-units="px"
     inkscape:current-layer="layer1"
     showgrid="false"
     inkscape:window-width="1871"
     inkscape:window-height="1176"
     inkscape:window-x="49"
     inkscape:window-y="24"
     inkscape:window-maximized="1">
    <inkscape:grid
       type="xygrid"
       id="grid2985" />
  </sodipodi:namedview>
  <metadata
     id="metadata7">
    <rdf:RDF>
      <cc:Work
         rdf:about="">
        <dc:format>image/svg+xml</dc:format>
        <dc:type
           rdf:resource="http://purl.org/dc/dcmitype/StillImage" />
        <dc:title></dc:title>
      </cc:Work>
    </rdf:RDF>
  </metadata>
  <g
     inkscape:label="Layer 1"
     inkscape:groupmode="layer"
     id="layer1">
    <g
       id="g4004">
      <path
         style="fill:none;stroke:#000000;stroke-width:0.50094604px;stroke-linecap:butt;stroke-linejoin:miter;stroke-opacity:1"
         d="m 464.89238,707.71706 -75.14191,0 0,-65.12299"
         id="path3785"
         inkscape:connector-curvature="0" />
      <g
         id="g3787"
         transform="translate(-30.310097,86.16101)">
        <path
           transform="matrix(1.1401227,0,0,1.1401227,-60.182702,-80.130876)"
           d="m 465,589.86218 c 0,9.66499 -7.83502,17.5 -17.5,17.5 -9.66498,0 -17.5,-7.83501 -17.5,-17.5 0,-9.66498 7.83502,-17.5 17.5,-17.5 9.66498,0 17.5,7.83502 17.5,17.5 z"
           sodipodi:ry="17.5"
           sodipodi:rx="17.5"
           sodipodi:cy="589.86218"
           sodipodi:cx="447.5"
           id="path3789"
           style="fill:none;stroke:#000000;stroke-width:1;stroke-linejoin:round;stroke-miterlimit:4;stroke-opacity:1;stroke-dasharray:none"
           sodipodi:type="arc" />
        <path
           sodipodi:type="arc"
           style="fill:#000000;fill-opacity:1;stroke:#000000;stroke-width:1;stroke-linejoin:round;stroke-miterlimit:4;stroke-opacity:1;stroke-dasharray:none"
           id="path3791"
           sodipodi:cx="447.5"
           sodipodi:cy="589.86218"
           sodipodi:rx="17.5"
           sodipodi:ry="17.5"
           d="m 465,589.86218 c 0,9.66499 -7.83502,17.5 -17.5,17.5 -9.66498,0 -17.5,-7.83501 -17.5,-17.5 0,-9.66498 7.83502,-17.5 17.5,-17.5 9.66498,0 17.5,7.83502 17.5,17.5 z"
           transform="matrix(0.04947452,0,0,0.04947452,427.93288,563.16496)" />
      </g>
      <g
         transform="translate(-6.1871844,75.130096)"
         id="g3793">
        <path
           inkscape:connector-curvature="0"
           id="path3795"
           d="m 421,593.36218 2,2"
           style="fill:none;stroke:#000000;stroke-width:1px;stroke-linecap:butt;stroke-linejoin:miter;stroke-opacity:1" />
        <path
           inkscape:connector-curvature="0"
           id="path3797"
           d="m 421,595.36218 2,-2"
           style="fill:none;stroke:#000000;stroke-width:1px;stroke-linecap:butt;stroke-linejoin:miter;stroke-opacity:1" />
      </g>
      <g
         id="g3799"
         transform="translate(25.543148,74.384269)">
        <path
           style="fill:none;stroke:#000000;stroke-width:1px;stroke-linecap:butt;stroke-linejoin:miter;stroke-opacity:1"
           d="m 421,593.36218 2,2"
           id="path3801"
           inkscape:connector-curvature="0" />
        <path
           style="fill:none;stroke:#000000;stroke-width:1px;stroke-linecap:butt;stroke-linejoin:miter;stroke-opacity:1"
           d="m 421,595.36218 2,-2"
           id="path3803"
           inkscape:connector-curvature="0" />
      </g>
      <g
         transform="translate(-8.0867414,62.927502)"
         id="g3805">
        <path
           sodipodi:type="arc"
           style="fill:none;stroke:#000000;stroke-width:1;stroke-linejoin:round;stroke-miterlimit:4;stroke-opacity:1;stroke-dasharray:none"
           id="path3807"
           sodipodi:cx="447.5"
           sodipodi:cy="589.86218"
           sodipodi:rx="17.5"
           sodipodi:ry="17.5"
           d="m 465,589.86218 c 0,9.66499 -7.83502,17.5 -17.5,17.5 -9.66498,0 -17.5,-7.83501 -17.5,-17.5 0,-9.66498 7.83502,-17.5 17.5,-17.5 9.66498,0 17.5,7.83502 17.5,17.5 z"
           transform="matrix(1.1401227,0,0,1.1401227,-60.182702,-80.130876)" />
        <path
           transform="matrix(0.04947452,0,0,0.04947452,427.93288,563.16496)"
           d="m 465,589.86218 c 0,9.66499 -7.83502,17.5 -17.5,17.5 -9.66498,0 -17.5,-7.83501 -17.5,-17.5 0,-9.66498 7.83502,-17.5 17.5,-17.5 9.66498,0 17.5,7.83502 17.5,17.5 z"
           sodipodi:ry="17.5"
           sodipodi:rx="17.5"
           sodipodi:cy="589.86218"
           sodipodi:cx="447.5"
           id="path3809"
           style="fill:#000000;fill-opacity:1;stroke:#000000;stroke-width:1;stroke-linejoin:round;stroke-miterlimit:4;stroke-opacity:1;stroke-dasharray:none"
           sodipodi:type="arc" />
      </g>
    </g>
    <path
       inkscape:connector-curvature="0"
       id="path3833"
       d="m 501.91964,660.0854 28,28"
       style="fill:none;stroke:#afb0b0;stroke-width:0.625;stroke-linecap:butt;stroke-linejoin:miter;stroke-miterlimit:4;stroke-opacity:1;stroke-dasharray:none;stroke-dashoffset:0" />
    <rect
       style="fill:none;stroke:#afb0b0;stroke-width:0.625;stroke-linejoin:miter;stroke-miterlimit:4;stroke-opacity:1;stroke-dasharray:none;stroke-dashoffset:0"
       id="rect3821"
       width="13.958333"
       height="13.958333"
       x="515.88239"
       y="659.92322" />
    <g
       id="g3867"
       transform="translate(-26.428571,76.071429)">
      <path
         style="fill:none;stroke:#afb0b0;stroke-width:0.625;stroke-linecap:butt;stroke-linejoin:miter;stroke-miterlimit:4;stroke-opacity:1;stroke-dasharray:none;stroke-dashoffset:0"
         d="m 512.28302,587.7674 41.03053,41.03053"
         id="path3835"
         inkscape:connector-curvature="0" />
      <path
         inkscape:connector-curvature="0"
         id="path3825"
         d="m 531.52409,567.36561 41.03053,41.03053"
         style="fill:none;stroke:#afb0b0;stroke-width:0.625;stroke-linecap:butt;stroke-linejoin:miter;stroke-miterlimit:4;stroke-opacity:1;stroke-dasharray:none;stroke-dashoffset:0" />
    </g>
    <path
       transform="matrix(1.1401227,0,0,1.1401227,5.561255,1.476267)"
       d="m 465,589.86218 a 17.5,17.5 0 1 1 -35,0 17.5,17.5 0 1 1 35,0 z"
       sodipodi:ry="17.5"
       sodipodi:rx="17.5"
       sodipodi:cy="589.86218"
       sodipodi:cx="447.5"
       id="path3815"
       style="fill:none;stroke:#000000;stroke-width:1;stroke-linejoin:round;stroke-miterlimit:4;stroke-opacity:1;stroke-dasharray:none"
       sodipodi:type="arc" />
    <path
       sodipodi:type="arc"
       style="fill:none;stroke:#b1b1b1;stroke-width:1;stroke-linejoin:round;stroke-miterlimit:4;stroke-opacity:1;stroke-dasharray:0.99999998, 0.99999998;stroke-dashoffset:0"
       id="path3829"
       sodipodi:cx="447.5"
       sodipodi:cy="589.86218"
       sodipodi:rx="17.5"
       sodipodi:ry="17.5"
       d="m 465,589.86218 a 17.5,17.5 0 1 1 -35,0 17.5,17.5 0 1 1 35,0 z"
       transform="matrix(0.80340519,0,0,0.80340519,156.24234,200.09319)" />
    <text
       xml:space="preserve"
       style="font-size:8px;font-style:normal;font-weight:normal;line-height:104.99999523%;letter-spacing:-0.30000001px;word-spacing:0px;fill:#000000;fill-opacity:1;stroke:none;font-family:Sans"
       x="535.71429"
       y="640.2193"
       id="text3837"
       sodipodi:linespacing="105%"><tspan
         sodipodi:role="line"
         x="535.71429"
         y="640.2193"
         id="tspan3841">Noise in</tspan><tspan
         sodipodi:role="line"
         x="535.71429"
         y="648.61932"
         id="tspan3845">local model</tspan></text>
    <path
       style="fill:none;stroke:#000000;stroke-width:0.5;stroke-linecap:butt;stroke-linejoin:miter;stroke-miterlimit:4;stroke-opacity:1;stroke-dasharray:none"
       d="m 523.30357,655.04075 11.33929,-17.67857"
       id="path3847"
       inkscape:connector-curvature="0" />
    <text
       sodipodi:linespacing="105%"
       id="text3849"
       y="659.5943"
       x="549.55359"
       style="font-size:8px;font-style:normal;font-weight:normal;line-height:104.99999523%;letter-spacing:-0.30000001px;word-spacing:0px;fill:#000000;fill-opacity:1;stroke:none;font-family:Sans"
       xml:space="preserve"><tspan
         id="tspan3853"
         y="659.5943"
         x="549.55359"
         sodipodi:role="line">Noise in</tspan><tspan
         y="667.99432"
         x="549.55359"
         sodipodi:role="line"
         id="tspan3857">combined</tspan><tspan
         y="676.39429"
         x="549.55359"
         sodipodi:role="line"
         id="tspan3859">model</tspan></text>
    <path
       inkscape:connector-curvature="0"
       id="path3861"
       d="m 522.23214,667.54075 25.89287,-10.89286"
       style="fill:none;stroke:#000000;stroke-width:0.5;stroke-linecap:butt;stroke-linejoin:miter;stroke-miterlimit:4;stroke-opacity:1;stroke-dasharray:none"
       sodipodi:nodetypes="cc" />
    <path
       style="fill:none;stroke:#000000;stroke-width:1.04964697px;stroke-linecap:butt;stroke-linejoin:miter;stroke-opacity:1"
       d="m 505.84839,683.91366 19.71502,-19.71503"
       id="path3865"
       inkscape:connector-curvature="0" />
    <g
       id="g3881"
       transform="translate(-26.428571,76.071429)">
      <path
         transform="matrix(0.04947452,0,0,0.04947452,520.10541,568.70067)"
         d="m 465,589.86218 c 0,9.66499 -7.83502,17.5 -17.5,17.5 -9.66498,0 -17.5,-7.83501 -17.5,-17.5 0,-9.66498 7.83502,-17.5 17.5,-17.5 9.66498,0 17.5,7.83502 17.5,17.5 z"
         sodipodi:ry="17.5"
         sodipodi:rx="17.5"
         sodipodi:cy="589.86218"
         sodipodi:cx="447.5"
         id="path3817"
         style="fill:#000000;fill-opacity:1;stroke:#000000;stroke-width:1;stroke-linejoin:round;stroke-miterlimit:4;stroke-opacity:1;stroke-dasharray:none"
         sodipodi:type="arc" />
      <path
         inkscape:connector-curvature="0"
         id="path3873"
         d="m 512.28302,587.7674 41.03053,41.03053"
         style="fill:none;stroke:#afb0b0;stroke-width:0.625;stroke-linecap:butt;stroke-linejoin:miter;stroke-miterlimit:4;stroke-opacity:1;stroke-dasharray:none;stroke-dashoffset:0" />
      <path
         style="fill:none;stroke:#afb0b0;stroke-width:0.625;stroke-linecap:butt;stroke-linejoin:miter;stroke-miterlimit:4;stroke-opacity:1;stroke-dasharray:none;stroke-dashoffset:0"
         d="m 531.52409,567.36561 41.03053,41.03053"
         id="path3875"
         inkscape:connector-curvature="0" />
    </g>
    <g
       id="g4056"
       transform="translate(224.28571,85)">
      <path
         inkscape:connector-curvature="0"
         id="path2987"
         d="m 464.89238,622.61171 -75.14191,0 0,-65.12299"
         style="fill:none;stroke:#000000;stroke-width:0.50094604px;stroke-linecap:butt;stroke-linejoin:miter;stroke-opacity:1" />
      <path
         sodipodi:type="arc"
         style="fill:#000000;fill-opacity:1;stroke:none"
         id="path3888"
         sodipodi:cx="447.5"
         sodipodi:cy="589.86218"
         sodipodi:rx="17.5"
         sodipodi:ry="17.5"
         d="m 465,589.86218 c 0,9.66499 -7.83502,17.5 -17.5,17.5 -9.66498,0 -17.5,-7.83501 -17.5,-17.5 0,-9.66498 7.83502,-17.5 17.5,-17.5 9.66498,0 17.5,7.83502 17.5,17.5 z"
         transform="matrix(0.04947452,0,0,0.04947452,397.57304,559.41989)" />
      <path
         style="fill:none;stroke:#000000;stroke-width:0.625;stroke-linecap:butt;stroke-linejoin:miter;stroke-miterlimit:4;stroke-opacity:1;stroke-dasharray:none;stroke-dashoffset:0"
         d="m 389.75065,578.48662 41.03053,41.03053"
         id="path3890"
         inkscape:connector-curvature="0" />
      <path
         inkscape:connector-curvature="0"
         id="path3892"
         d="m 408.99172,558.08483 41.03053,41.03053"
         style="fill:none;stroke:#000000;stroke-width:0.625;stroke-linecap:butt;stroke-linejoin:miter;stroke-miterlimit:4;stroke-opacity:1;stroke-dasharray:none;stroke-dashoffset:0" />
      <path
         transform="matrix(0.04947452,0,0,0.04947452,419.84614,536.18888)"
         d="m 465,589.86218 c 0,9.66499 -7.83502,17.5 -17.5,17.5 -9.66498,0 -17.5,-7.83501 -17.5,-17.5 0,-9.66498 7.83502,-17.5 17.5,-17.5 9.66498,0 17.5,7.83502 17.5,17.5 z"
         sodipodi:ry="17.5"
         sodipodi:rx="17.5"
         sodipodi:cy="589.86218"
         sodipodi:cx="447.5"
         id="path3932"
         style="fill:#000000;fill-opacity:1;stroke:none"
         sodipodi:type="arc" />
      <path
         inkscape:connector-curvature="0"
         id="path3958"
         d="m 411.98279,555.27233 41.03053,41.03053"
         style="fill:none;stroke:#000000;stroke-width:0.625;stroke-linecap:butt;stroke-linejoin:miter;stroke-miterlimit:4;stroke-opacity:1;stroke-dasharray:none;stroke-dashoffset:0" />
      <path
         style="fill:none;stroke:#000000;stroke-width:0.625;stroke-linecap:butt;stroke-linejoin:miter;stroke-miterlimit:4;stroke-opacity:1;stroke-dasharray:none;stroke-dashoffset:0"
         d="m 431.22386,534.87054 41.03053,41.03053"
         id="path3960"
         inkscape:connector-curvature="0" />
      <path
         d="m 408.0357,622.67468 c 0,10.03482 -8.13482,18.16965 -18.16964,18.16965 -10.03482,0 -18.16965,-8.13483 -18.16965,-18.16965 0,-10.03481 8.13483,-18.16964 18.16965,-18.16964 10.03482,0 18.16964,8.13483 18.16964,18.16964 z"
         sodipodi:ry="18.169643"
         sodipodi:rx="18.169643"
         sodipodi:cy="622.67468"
         sodipodi:cx="389.86606"
         id="path3972"
         style="fill:none;stroke:#aaaaaa;stroke-width:0.80340517;stroke-linejoin:miter;stroke-miterlimit:4;stroke-opacity:1;stroke-dasharray:0.80340517, 0.80340517;stroke-dashoffset:0"
         sodipodi:type="arc" />
      <text
         sodipodi:linespacing="125%"
         id="text3974"
         y="604.68359"
         x="367.23215"
         style="font-size:8px;font-style:normal;font-weight:normal;line-height:125%;letter-spacing:0px;word-spacing:0px;fill:#000000;fill-opacity:1;stroke:none;font-family:Sans"
         xml:space="preserve"><tspan
           y="604.68359"
           x="367.23215"
           id="tspan3976"
           sodipodi:role="line">Prior</tspan></text>
      <path
         sodipodi:type="arc"
         style="fill:none;stroke:#000000;stroke-width:1;stroke-linejoin:round;stroke-miterlimit:4;stroke-opacity:1;stroke-dasharray:none"
         id="path3992"
         sodipodi:cx="447.5"
         sodipodi:cy="589.86218"
         sodipodi:rx="17.5"
         sodipodi:ry="17.5"
         d="m 465,589.86218 c 0,9.66499 -7.83502,17.5 -17.5,17.5 -9.66498,0 -17.5,-7.83501 -17.5,-17.5 0,-9.66498 7.83502,-17.5 17.5,-17.5 9.66498,0 17.5,7.83502 17.5,17.5 z"
         transform="matrix(1.0026577,1.0026577,-0.56156074,0.56156074,302.23465,-191.29096)" />
      <path
         transform="matrix(1.0026577,1.0026577,-0.56156074,0.56156074,324.47314,-214.55755)"
         d="m 465,589.86218 c 0,9.66499 -7.83502,17.5 -17.5,17.5 -9.66498,0 -17.5,-7.83501 -17.5,-17.5 0,-9.66498 7.83502,-17.5 17.5,-17.5 9.66498,0 17.5,7.83502 17.5,17.5 z"
         sodipodi:ry="17.5"
         sodipodi:rx="17.5"
         sodipodi:cy="589.86218"
         sodipodi:cx="447.5"
         id="path4002"
         style="fill:none;stroke:#000000;stroke-width:1;stroke-linejoin:round;stroke-miterlimit:4;stroke-opacity:1;stroke-dasharray:none"
         sodipodi:type="arc" />
    </g>
    <text
       xml:space="preserve"
       style="font-size:8px;font-style:normal;font-weight:normal;line-height:125%;letter-spacing:0px;word-spacing:0px;fill:#000000;fill-opacity:1;stroke:none;font-family:Sans"
       x="395"
       y="716.64789"
       id="text4019"
       sodipodi:linespacing="125%"><tspan
         sodipodi:role="line"
         id="tspan4021"
         x="395"
         y="716.64789">1. Local model</tspan></text>
    <text
       sodipodi:linespacing="105%"
       id="text4046"
       y="716.64789"
       x="490"
       style="font-size:8px;font-style:normal;font-weight:normal;line-height:104.99999523%;letter-spacing:0px;word-spacing:0px;fill:#000000;fill-opacity:1;stroke:none;font-family:Sans"
       xml:space="preserve"><tspan
         y="716.64789"
         x="490"
         id="tspan4048"
         sodipodi:role="line">2. Less noise introduced</tspan><tspan
         y="725.04791"
         x="490"
         sodipodi:role="line"
         id="tspan4052">in direction of correlation</tspan><tspan
         y="733.44788"
         x="490"
         sodipodi:role="line"
         id="tspan4205">because we're adding the</tspan><tspan
         y="741.8479"
         x="490"
         sodipodi:role="line"
         id="tspan4207">same amount of noise but</tspan><tspan
         y="750.24786"
         x="490"
         sodipodi:role="line"
         id="tspan4209">in the x or y directions.</tspan></text>
    <text
       xml:space="preserve"
       style="font-size:8px;font-style:normal;font-weight:normal;line-height:104.99999523%;letter-spacing:0px;word-spacing:0px;fill:#000000;fill-opacity:1;stroke:none;font-family:Sans"
       x="636.42859"
       y="716.64789"
       id="text4070"
       sodipodi:linespacing="105%"><tspan
         id="tspan4074"
         sodipodi:role="line"
         x="636.42859"
         y="716.64789">2. Maybe means we</tspan><tspan
         sodipodi:role="line"
         x="636.42859"
         y="725.04791"
         id="tspan4078">will be able to preserve</tspan><tspan
         sodipodi:role="line"
         x="636.42859"
         y="733.44788"
         id="tspan4080">correlation information</tspan><tspan
         sodipodi:role="line"
         x="636.42859"
         y="741.8479"
         id="tspan4082">without revealing more</tspan><tspan
         sodipodi:role="line"
         x="636.42859"
         y="750.24786"
         id="tspan4084">about individual rows.</tspan></text>
    <path
       style="fill:none;stroke:#000000;stroke-width:0.50094604px;stroke-linecap:butt;stroke-linejoin:miter;stroke-opacity:1"
       d="m 464.89238,833.43135 -75.14191,0 0,-65.12299"
       id="path4088"
       inkscape:connector-curvature="0" />
    <g
       id="g4090"
       transform="translate(-30.310097,211.8753)">
      <path
         transform="matrix(1.1401227,0,0,1.1401227,-60.182702,-80.130876)"
         d="m 465,589.86218 c 0,9.66499 -7.83502,17.5 -17.5,17.5 -9.66498,0 -17.5,-7.83501 -17.5,-17.5 0,-9.66498 7.83502,-17.5 17.5,-17.5 9.66498,0 17.5,7.83502 17.5,17.5 z"
         sodipodi:ry="17.5"
         sodipodi:rx="17.5"
         sodipodi:cy="589.86218"
         sodipodi:cx="447.5"
         id="path4092"
         style="fill:none;stroke:#000000;stroke-width:1;stroke-linejoin:round;stroke-miterlimit:4;stroke-opacity:1;stroke-dasharray:none"
         sodipodi:type="arc" />
      <path
         sodipodi:type="arc"
         style="fill:#000000;fill-opacity:1;stroke:#000000;stroke-width:1;stroke-linejoin:round;stroke-miterlimit:4;stroke-opacity:1;stroke-dasharray:none"
         id="path4094"
         sodipodi:cx="447.5"
         sodipodi:cy="589.86218"
         sodipodi:rx="17.5"
         sodipodi:ry="17.5"
         d="m 465,589.86218 c 0,9.66499 -7.83502,17.5 -17.5,17.5 -9.66498,0 -17.5,-7.83501 -17.5,-17.5 0,-9.66498 7.83502,-17.5 17.5,-17.5 9.66498,0 17.5,7.83502 17.5,17.5 z"
         transform="matrix(0.04947452,0,0,0.04947452,427.93288,563.16496)" />
    </g>
    <g
       transform="translate(-6.1871844,200.84439)"
       id="g4096">
      <path
         inkscape:connector-curvature="0"
         id="path4098"
         d="m 421,593.36218 2,2"
         style="fill:none;stroke:#000000;stroke-width:1px;stroke-linecap:butt;stroke-linejoin:miter;stroke-opacity:1" />
      <path
         inkscape:connector-curvature="0"
         id="path4100"
         d="m 421,595.36218 2,-2"
         style="fill:none;stroke:#000000;stroke-width:1px;stroke-linecap:butt;stroke-linejoin:miter;stroke-opacity:1" />
    </g>
    <text
       sodipodi:linespacing="125%"
       id="text4114"
       y="842.36218"
       x="395"
       style="font-size:8px;font-style:normal;font-weight:normal;line-height:125%;letter-spacing:0px;word-spacing:0px;fill:#000000;fill-opacity:1;stroke:none;font-family:Sans"
       xml:space="preserve"><tspan
         y="842.36218"
         x="395"
         id="tspan4116"
         sodipodi:role="line">1. Local model</tspan></text>
    <text
       xml:space="preserve"
       style="font-size:8px;font-style:normal;font-weight:normal;line-height:125%;letter-spacing:0px;word-spacing:0px;fill:#000000;fill-opacity:1;stroke:none;font-family:Sans"
       x="487.90369"
       y="768.00421"
       id="text4131"
       sodipodi:linespacing="125%"><tspan
         sodipodi:role="line"
         id="tspan4133"
         x="487.90369"
         y="768.00421">Releasing a+b+n<tspan
   style="font-size:65.00091553%;baseline-shift:sub"
   id="tspan4135">1</tspan></tspan><tspan
         sodipodi:role="line"
         x="487.90369"
         y="778.00421"
         id="tspan4147">and a-b+n2 initially</tspan><tspan
         sodipodi:role="line"
         x="487.90369"
         y="788.00421"
         id="tspan4197">appears to give a</tspan><tspan
         sodipodi:role="line"
         x="487.90369"
         y="798.00421"
         id="tspan4201">better approximation</tspan><tspan
         sodipodi:role="line"
         x="487.90369"
         y="808.00421"
         id="tspan4203">but we're releasing</tspan></text>
    <g
       transform="translate(-122.50371,206.36729)"
       id="g4172">
      <path
         sodipodi:type="arc"
         style="fill:#000000;fill-opacity:1;stroke:#000000;stroke-width:1;stroke-linejoin:round;stroke-miterlimit:4;stroke-opacity:1;stroke-dasharray:none"
         id="path4174"
         sodipodi:cx="447.5"
         sodipodi:cy="589.86218"
         sodipodi:rx="17.5"
         sodipodi:ry="17.5"
         d="m 465,589.86218 c 0,9.66499 -7.83502,17.5 -17.5,17.5 -9.66498,0 -17.5,-7.83501 -17.5,-17.5 0,-9.66498 7.83502,-17.5 17.5,-17.5 9.66498,0 17.5,7.83502 17.5,17.5 z"
         transform="matrix(0.04947452,0,0,0.04947452,520.10541,568.70067)" />
      <path
         style="fill:none;stroke:#afb0b0;stroke-width:0.625;stroke-linecap:butt;stroke-linejoin:miter;stroke-miterlimit:4;stroke-opacity:1;stroke-dasharray:none;stroke-dashoffset:0"
         d="m 512.28302,587.7674 41.03053,41.03053"
         id="path4176"
         inkscape:connector-curvature="0" />
      <path
         inkscape:connector-curvature="0"
         id="path4178"
         d="m 531.52409,567.36561 41.03053,41.03053"
         style="fill:none;stroke:#afb0b0;stroke-width:0.625;stroke-linecap:butt;stroke-linejoin:miter;stroke-miterlimit:4;stroke-opacity:1;stroke-dasharray:none;stroke-dashoffset:0" />
    </g>
  </g>
</svg>
